# Aspose.3D Wavefront OBJ Exporter
# Copyright 2004-2023 Aspose Pty Ltd.
# File created: 11/02/2023 09:23:46


#
# object obj_54504782
#

v 14.67221355438232424 -3.11867523193359376 6
v 15 0 -6
v 15 0 6
v 14.67221355438232424 -3.11867523193359376 -6
v 12.1352548599243164 -8.8167781829833984 6
v 13.703181266784668 -6.10104942321777344 -6
v 13.703181266784668 -6.10104942321777344 6
v 12.1352548599243164 -8.8167781829833984 -6
v 10.03695869445800781 -11.1471719741821289 6
v 10.03695869445800781 -11.1471719741821289 -6
v -12.1352548599243164 -8.8167781829833984 -6
v -13.703181266784668 -6.10104942321777344 6
v -13.703181266784668 -6.10104942321777344 -6
v -12.1352548599243164 -8.8167781829833984 6
v 14.67221355438232424 3.11867523193359376 -6
v 14.67221355438232424 3.11867523193359376 6
v 7.5 12.99038028717041008 -6
v 4.6352548599243164 14.26584720611572264 6
v 7.5 12.99038028717041008 6
v 4.6352548599243164 14.26584720611572264 -6
v -1.5679264068603516 -14.91782760620117184 -6
v 1.5679264068603516 -14.91782760620117184 6
v -1.5679264068603516 -14.91782760620117184 6
v 1.5679264068603516 -14.91782760620117184 -6
v -14.67221355438232424 -3.11867523193359376 -6
v -15 0 6
v -15 0 -6
v -14.67221355438232424 -3.11867523193359376 6
v -10.03695869445800781 -11.1471719741821289 -6
v -10.03695869445800781 -11.1471719741821289 6
v -4.6352548599243164 -14.26584720611572264 -6
v -4.6352548599243164 -14.26584720611572264 6
v -7.5 -12.99038028717041008 6
v -7.5 -12.99038028717041008 -6
v -13.703181266784668 6.10104942321777344 -6
v -12.1352548599243164 8.8167781829833984 6
v -12.1352548599243164 8.8167781829833984 -6
v -13.703181266784668 6.10104942321777344 6
v 4.6352548599243164 -14.26584720611572264 6
v 4.6352548599243164 -14.26584720611572264 -6
v 7.5 -12.99038028717041008 -6
v 7.5 -12.99038028717041008 6
v 10.5 0 -6
v 10.27054977416992188 -2.1830720901489258 -6
v 9.5922269821166992 -4.27073383331298828 -6
v 10.27054977416992188 2.1830720901489258 -6
v 13.703181266784668 6.10104942321777344 -6
v 8.49467754364013672 -6.17174434661865234 -6
v 7.02587127685546875 -7.80302047729492192 -6
v 5.25 -9.09326648712158204 -6
v 3.24467754364013672 -9.98609256744384768 -6
v 1.0975484848022461 -10.44247913360595704 -6
v -1.0975484848022461 -10.44247913360595704 -6
v -3.24467754364013672 -9.98609256744384768 -6
v -5.25 -9.09326648712158204 -6
v -7.02587127685546875 -7.80302047729492192 -6
v -8.49467754364013672 -6.17174434661865234 -6
v -9.5922269821166992 -4.27073383331298828 -6
v -10.27054977416992188 -2.1830720901489258 -6
v 9.5922269821166992 4.27073383331298828 -6
v 12.1352548599243164 8.8167781829833984 -6
v 8.49467754364013672 6.17174434661865234 -6
v 10.03695869445800781 11.1471719741821289 -6
v 7.02587127685546875 7.80302047729492192 -6
v 5.25 9.09326648712158204 -6
v 3.24467754364013672 9.98609256744384768 -6
v 1.5679264068603516 14.91782760620117184 -6
v 1.0975484848022461 10.44247913360595704 -6
v -1.0975484848022461 10.44247913360595704 -6
v -1.5679264068603516 14.91782760620117184 -6
v -3.24467754364013672 9.98609256744384768 -6
v -4.6352548599243164 14.26584720611572264 -6
v -5.25 9.09326648712158204 -6
v -7.5 12.99038028717041008 -6
v -7.02587127685546875 7.80302047729492192 -6
v -10.03695869445800781 11.1471719741821289 -6
v -8.49467754364013672 6.17174434661865234 -6
v -9.5922269821166992 4.27073383331298828 -6
v -10.27054977416992188 2.1830720901489258 -6
v -14.67221355438232424 3.11867523193359376 -6
v -10.5 0 -6
v -10.03695869445800781 11.1471719741821289 6
v -7.5 12.99038028717041008 6
v -14.67221355438232424 3.11867523193359376 6
v 10.5 0 6
v 10.27054977416992188 2.1830720901489258 6
v 13.703181266784668 6.10104942321777344 6
v 9.5922269821166992 4.27073383331298828 6
v 12.1352548599243164 8.8167781829833984 6
v 10.27054977416992188 -2.1830720901489258 6
v 8.49467754364013672 6.17174434661865234 6
v 10.03695869445800781 11.1471719741821289 6
v 7.02587127685546875 7.80302047729492192 6
v 5.25 9.09326648712158204 6
v 3.24467754364013672 9.98609256744384768 6
v 1.5679264068603516 14.91782760620117184 6
v 1.0975484848022461 10.44247913360595704 6
v -1.0975484848022461 10.44247913360595704 6
v -1.5679264068603516 14.91782760620117184 6
v -3.24467754364013672 9.98609256744384768 6
v -4.6352548599243164 14.26584720611572264 6
v -5.25 9.09326648712158204 6
v -7.02587127685546875 7.80302047729492192 6
v -8.49467754364013672 6.17174434661865234 6
v -9.5922269821166992 4.27073383331298828 6
v -10.27054977416992188 2.1830720901489258 6
v 9.5922269821166992 -4.27073383331298828 6
v 8.49467754364013672 -6.17174434661865234 6
v 7.02587127685546875 -7.80302047729492192 6
v 5.25 -9.09326648712158204 6
v 3.24467754364013672 -9.98609256744384768 6
v 1.0975484848022461 -10.44247913360595704 6
v -1.0975484848022461 -10.44247913360595704 6
v -3.24467754364013672 -9.98609256744384768 6
v -5.25 -9.09326648712158204 6
v -7.02587127685546875 -7.80302047729492192 6
v -8.49467754364013672 -6.17174434661865234 6
v -9.5922269821166992 -4.27073383331298828 6
v -10.27054977416992188 -2.1830720901489258 6
v -10.5 0 6
# 120 vertices

vn 0.99452191591262816 -0.10452861338853836 0
vn 0.86602538824081424 -0.4999999105930328 0
vn 0.7431447505950928 -0.66913062334060672 0
vn -0.86602538824081424 -0.4999999105930328 0
vn 0.99452191591262816 0.10452861338853836 0
vn 0.40673670172691344 0.91354542970657344 0
vn 0 -1 0
vn -0.99452191591262816 -0.10452861338853836 0
vn -0.7431447505950928 -0.66913062334060672 0
vn -0.20791156589984892 -0.9781476259231568 0
vn -0.58778530359268192 -0.80901706218719488 0
vn -0.86602538824081424 0.4999999105930328 0
vn 0.95105654001235968 -0.30901706218719484 0
vn 0.20791156589984892 -0.9781476259231568 0
vn 0.58778530359268192 -0.80901706218719488 0
vn 0.40673670172691344 -0.91354542970657344 0
vn 0 0 -1
vn -0.95105654001235968 -0.30901706218719484 0
vn -0.40673670172691344 -0.91354542970657344 0
vn -0.58778530359268192 0.80901706218719488 0
vn -0.99452191591262816 0.10452861338853836 0
vn -0.95105654001235968 0.30901706218719484 0
vn 0 0 1
vn -0.7431447505950928 0.66913062334060672 0
vn 0 1 0
vn 0.20791156589984892 0.9781476259231568 0
vn 0.58778530359268192 0.80901706218719488 0
vn 0.86602538824081424 0.4999999105930328 0
vn 0.95105654001235968 0.30901706218719484 0
vn -0.20791156589984892 0.9781476259231568 0
vn 0.7431447505950928 0.66913062334060672 0
vn -0.40673670172691344 0.91354542970657344 0
vn -0.99452185630798336 0.10452850908041 0
vn -0.95105648040771488 0.309017151594162 0
vn 0.4067362546920776 0.91354560852050784 0
vn 0.86602526903152464 0.50000011920928952 0
vn 0.58778524398803712 0.80901700258255008 0
vn -0.99452185630798336 -0.10452850908041 0
vn -0.20791177451610564 -0.978147566318512 0
vn -0.74314516782760624 0.669130265712738 0
vn -0.86602526903152464 0.50000011920928952 0
vn 0.99452185630798336 0.10452850908041 0
vn 0.74314516782760624 0.669130265712738 0
vn -0.58778524398803712 -0.80901700258255008 0
vn 0.86602526903152464 -0.50000011920928952 0
vn -0.20791177451610564 0.978147566318512 0
vn -0.58778524398803712 0.80901700258255008 0
vn -0.4067362546920776 0.91354560852050784 0
vn 0.95105648040771488 0.309017151594162 0
vn 0.20791177451610564 0.978147566318512 0
vn -0.95105648040771488 -0.309017151594162 0
vn 0.99452185630798336 -0.10452850908041 0
vn 0.95105648040771488 -0.309017151594162 0
vn 0.74314516782760624 -0.669130265712738 0
vn -0.4067362546920776 -0.91354560852050784 0
vn -0.74314516782760624 -0.669130265712738 0
vn -0.86602526903152464 -0.50000011920928952 0
vn 0.58778524398803712 -0.80901700258255008 0
vn 0.4067362546920776 -0.91354560852050784 0
vn 0.20791177451610564 -0.978147566318512 0
# 60 vertex normals

g obj_54504782
s 1
f 1//1 2//1 3//1
f 2//1 1//1 4//1
f 5//2 6//2 7//2
f 6//2 5//2 8//2
f 9//3 8//3 5//3
f 8//3 9//3 10//3
f 11//4 12//4 13//4
f 12//4 11//4 14//4
f 3//5 15//5 16//5
f 15//5 3//5 2//5
f 17//6 18//6 19//6
f 18//6 17//6 20//6
f 21//7 22//7 23//7
f 22//7 21//7 24//7
f 25//8 26//8 27//8
f 26//8 25//8 28//8
f 29//9 14//9 11//9
f 14//9 29//9 30//9
f 31//10 23//10 32//10
f 23//10 31//10 21//10
f 29//11 33//11 30//11
f 33//11 29//11 34//11
f 35//12 36//12 37//12
f 36//12 35//12 38//12
f 7//13 4//13 1//13
f 4//13 7//13 6//13
f 24//14 39//14 22//14
f 39//14 24//14 40//14
f 41//15 9//15 42//15
f 9//15 41//15 10//15
f 40//16 42//16 39//16
f 42//16 40//16 41//16
f 43//17 2//17 4//17
f 44//17 4//17 6//17
f 2//17 43//17 15//17
f 45//17 6//17 8//17
f 46//17 15//17 43//17
f 15//17 46//17 47//17
f 4//17 44//17 43//17
f 48//17 8//17 10//17
f 6//17 45//17 44//17
f 8//17 48//17 45//17
f 49//17 10//17 41//17
f 10//17 49//17 48//17
f 41//17 50//17 49//17
f 40//17 50//17 41//17
f 40//17 51//17 50//17
f 24//17 51//17 40//17
f 24//17 52//17 51//17
f 24//17 53//17 52//17
f 21//17 53//17 24//17
f 21//17 54//17 53//17
f 31//17 54//17 21//17
f 31//17 55//17 54//17
f 34//17 55//17 31//17
f 55//17 34//17 56//17
f 29//17 56//17 34//17
f 56//17 29//17 57//17
f 11//17 57//17 29//17
f 57//17 11//17 58//17
f 13//17 58//17 11//17
f 58//17 13//17 59//17
f 60//17 47//17 46//17
f 47//17 60//17 61//17
f 62//17 61//17 60//17
f 61//17 62//17 63//17
f 64//17 63//17 62//17
f 63//17 64//17 17//17
f 65//17 17//17 64//17
f 65//17 20//17 17//17
f 66//17 20//17 65//17
f 66//17 67//17 20//17
f 68//17 67//17 66//17
f 69//17 67//17 68//17
f 69//17 70//17 67//17
f 71//17 70//17 69//17
f 71//17 72//17 70//17
f 73//17 72//17 71//17
f 74//17 73//17 75//17
f 73//17 74//17 72//17
f 76//17 75//17 77//17
f 37//17 77//17 78//17
f 75//17 76//17 74//17
f 35//17 78//17 79//17
f 80//17 79//17 81//17
f 25//17 59//17 13//17
f 77//17 37//17 76//17
f 59//17 25//17 81//17
f 78//17 35//17 37//17
f 27//17 81//17 25//17
f 79//17 80//17 35//17
f 81//17 27//17 80//17
f 13//18 28//18 25//18
f 28//18 13//18 12//18
f 34//19 32//19 33//19
f 32//19 34//19 31//19
f 74//20 82//20 83//20
f 82//20 74//20 76//20
f 27//21 84//21 80//21
f 84//21 27//21 26//21
f 80//22 38//22 35//22
f 38//22 80//22 84//22
f 85//23 3//23 16//23
f 86//23 16//23 87//23
f 3//23 85//23 1//23
f 88//23 87//23 89//23
f 90//23 1//23 85//23
f 1//23 90//23 7//23
f 16//23 86//23 85//23
f 91//23 89//23 92//23
f 87//23 88//23 86//23
f 89//23 91//23 88//23
f 93//23 92//23 19//23
f 92//23 93//23 91//23
f 19//23 94//23 93//23
f 18//23 94//23 19//23
f 18//23 95//23 94//23
f 96//23 95//23 18//23
f 96//23 97//23 95//23
f 96//23 98//23 97//23
f 99//23 98//23 96//23
f 99//23 100//23 98//23
f 101//23 100//23 99//23
f 101//23 102//23 100//23
f 83//23 102//23 101//23
f 102//23 83//23 103//23
f 82//23 103//23 83//23
f 103//23 82//23 104//23
f 36//23 104//23 82//23
f 104//23 36//23 105//23
f 38//23 105//23 36//23
f 105//23 38//23 106//23
f 107//23 7//23 90//23
f 7//23 107//23 5//23
f 108//23 5//23 107//23
f 5//23 108//23 9//23
f 109//23 9//23 108//23
f 9//23 109//23 42//23
f 110//23 42//23 109//23
f 110//23 39//23 42//23
f 111//23 39//23 110//23
f 111//23 22//23 39//23
f 112//23 22//23 111//23
f 113//23 22//23 112//23
f 113//23 23//23 22//23
f 114//23 23//23 113//23
f 114//23 32//23 23//23
f 115//23 32//23 114//23
f 33//23 115//23 116//23
f 115//23 33//23 32//23
f 30//23 116//23 117//23
f 14//23 117//23 118//23
f 116//23 30//23 33//23
f 12//23 118//23 119//23
f 28//23 119//23 120//23
f 84//23 106//23 38//23
f 117//23 14//23 30//23
f 106//23 84//23 120//23
f 118//23 12//23 14//23
f 26//23 120//23 84//23
f 119//23 28//23 12//23
f 120//23 26//23 28//23
f 37//24 82//24 76//24
f 82//24 37//24 36//24
f 67//25 99//25 96//25
f 99//25 67//25 70//25
f 20//26 96//26 18//26
f 96//26 20//26 67//26
f 63//27 19//27 92//27
f 19//27 63//27 17//27
f 87//28 61//28 89//28
f 61//28 87//28 47//28
f 16//29 47//29 87//29
f 47//29 16//29 15//29
f 70//30 101//30 99//30
f 101//30 70//30 72//30
f 89//31 63//31 92//31
f 63//31 89//31 61//31
f 72//32 83//32 101//32
f 83//32 72//32 74//32
f 44//33 85//33 43//33
f 85//33 44//33 90//33
f 45//34 90//34 44//34
f 90//34 45//34 107//34
f 54//35 115//35 114//35
f 115//35 54//35 55//35
f 117//36 58//36 118//36
f 58//36 117//36 57//36
f 55//37 116//37 115//37
f 116//37 55//37 56//37
f 43//38 86//38 46//38
f 86//38 43//38 85//38
f 68//39 95//39 97//39
f 95//39 68//39 66//39
f 49//40 108//40 48//40
f 108//40 49//40 109//40
f 48//41 107//41 45//41
f 107//41 48//41 108//41
f 52//25 113//25 112//25
f 113//25 52//25 53//25
f 119//42 81//42 120//42
f 81//42 119//42 59//42
f 116//43 57//43 117//43
f 57//43 116//43 56//43
f 65//44 93//44 94//44
f 93//44 65//44 64//44
f 105//45 77//45 104//45
f 77//45 105//45 78//45
f 69//7 97//7 98//7
f 97//7 69//7 68//7
f 51//46 112//46 111//46
f 112//46 51//46 52//46
f 49//47 110//47 109//47
f 110//47 49//47 50//47
f 50//48 111//48 110//48
f 111//48 50//48 51//48
f 118//49 59//49 119//49
f 59//49 118//49 58//49
f 53//50 114//50 113//50
f 114//50 53//50 54//50
f 46//51 88//51 60//51
f 88//51 46//51 86//51
f 120//52 79//52 106//52
f 79//52 120//52 81//52
f 106//53 78//53 105//53
f 78//53 106//53 79//53
f 104//54 75//54 103//54
f 75//54 104//54 77//54
f 66//55 94//55 95//55
f 94//55 66//55 65//55
f 62//56 93//56 64//56
f 93//56 62//56 91//56
f 60//57 91//57 62//57
f 91//57 60//57 88//57
f 75//58 102//58 103//58
f 102//58 75//58 73//58
f 73//59 100//59 102//59
f 100//59 73//59 71//59
f 71//60 98//60 100//60
f 98//60 71//60 69//60
#240 polygons

